<?xml version="1.0" standalone="no"?>
<!DOCTYPE svg PUBLIC "-//W3C//DTD SVG 20010904//EN"
 "http://www.w3.org/TR/2001/REC-SVG-20010904/DTD/svg10.dtd">
<svg version="1.0" xmlns="http://www.w3.org/2000/svg"
 width="32.000000pt" height="32.000000pt" viewBox="0 0 32.000000 32.000000"
 preserveAspectRatio="xMidYMid meet">

<g transform="translate(0.000000,32.000000) scale(0.100000,-0.100000)"
fill="#000000" stroke="none">
<path d="M113 309 c-44 -13 -90 -62 -103 -110 -22 -82 15 -154 95 -184 86 -33
177 11 205 98 38 119 -76 232 -197 196z m62 -64 c11 -2 26 -4 33 -4 6 -1 12
-8 12 -16 0 -8 9 -24 20 -35 17 -17 18 -22 6 -47 -8 -15 -21 -45 -30 -66 -24
-56 -47 -47 -66 28 -14 53 -18 60 -39 57 -50 -5 -66 38 -30 77 16 17 28 21 48
16 14 -3 35 -8 46 -10z"/>
</g>
</svg>
