<?xml version="1.0" standalone="no"?>
<!DOCTYPE svg PUBLIC "-//W3C//DTD SVG 20010904//EN"
 "http://www.w3.org/TR/2001/REC-SVG-20010904/DTD/svg10.dtd">
<svg version="1.0" xmlns="http://www.w3.org/2000/svg"
 width="212.000000pt" height="103.000000pt" viewBox="0 0 212.000000 103.000000"
 preserveAspectRatio="xMidYMid meet">

<g transform="translate(0.000000,103.000000) scale(0.100000,-0.100000)"
fill="#000000" stroke="none">
<path d="M0 515 l0 -515 1060 0 1060 0 0 515 0 515 -1060 0 -1060 0 0 -515z
m744 164 c34 -27 36 -81 4 -103 -51 -36 -118 -5 -118 53 0 32 39 71 70 71 10
0 29 -9 44 -21z m1139 10 c50 -23 55 -93 8 -118 -78 -42 -154 54 -85 108 30
24 43 26 77 10z m-492 -19 c43 -12 59 -42 59 -111 l0 -50 26 20 c46 36 141 25
193 -22 59 -54 79 -172 42 -252 -33 -74 -113 -125 -197 -125 -48 0 -128 28
-152 52 -46 49 -52 85 -52 291 0 107 3 197 7 200 9 10 32 9 74 -3z m-911 -142
c33 -17 51 -35 67 -68 21 -39 23 -59 23 -182 l0 -138 -45 0 c-35 0 -52 6 -70
25 -23 23 -25 31 -25 130 0 92 -3 108 -20 125 -11 11 -29 20 -40 20 -11 0 -29
-9 -40 -20 -18 -18 -20 -33 -20 -151 l0 -132 -52 5 c-78 8 -88 26 -88 154 0
107 12 157 48 198 51 57 182 74 262 34z m691 -1 c140 -74 145 -297 8 -367
-111 -57 -246 -21 -296 80 -42 81 -26 187 36 249 64 64 172 80 252 38z m-427
-18 c25 -19 26 -25 26 -114 0 -115 9 -141 49 -150 34 -7 40 -29 20 -68 -17
-31 -28 -37 -77 -37 -106 0 -132 48 -132 244 0 73 3 136 7 139 14 15 81 6 107
-14z m1140 10 c35 -16 39 -30 45 -154 l6 -109 33 -10 c26 -7 32 -14 32 -37 0
-45 -31 -69 -91 -69 -45 0 -55 4 -85 34 l-34 34 0 161 0 161 35 0 c19 0 45 -5
59 -11z"/>
<path d="M1471 414 c-29 -37 -29 -126 -1 -154 29 -29 74 -26 99 6 47 60 15
174 -49 174 -19 0 -36 -9 -49 -26z"/>
</g>
</svg>
